<?xml version="1.0" encoding="UTF-8"?>
<!DOCTYPE svg PUBLIC "-//W3C//DTD SVG 1.1//EN" "http://www.w3.org/Graphics/SVG/1.1/DTD/svg11.dtd">
<svg version="1.1" xmlns="http://www.w3.org/2000/svg" xmlns:xlink="http://www.w3.org/1999/xlink" x="0" y="0" width="58.698" height="58.701" viewBox="0, 0, 19.566, 19.567">
  <g id="Layer_1">
    <g/>
    <path d="M17.269,3.729 C17.664,3.333 17.664,2.693 17.269,2.297 C16.873,1.902 16.233,1.902 15.837,2.297 L9.783,8.352 L3.728,2.297 C3.538,2.107 3.281,2 3.012,2 C2.743,2 2.486,2.107 2.296,2.297 C1.901,2.693 1.901,3.333 2.296,3.729 L8.351,9.783 L2.296,15.838 C1.901,16.234 1.901,16.874 2.296,17.27 C2.485,17.461 2.743,17.569 3.012,17.57 C3.281,17.569 3.539,17.461 3.728,17.27 L9.783,11.215 L15.837,17.269 C16.026,17.46 16.284,17.568 16.553,17.569 C16.822,17.568 17.08,17.46 17.269,17.269 C17.664,16.874 17.664,16.233 17.269,15.838 L11.215,9.783 z" fill="#A3A3A3"/>
  </g>
</svg>
