<?xml version="1.0" encoding="UTF-8"?>
<!DOCTYPE svg PUBLIC "-//W3C//DTD SVG 1.1//EN" "http://www.w3.org/Graphics/SVG/1.1/DTD/svg11.dtd">
<svg version="1.1" xmlns="http://www.w3.org/2000/svg" xmlns:xlink="http://www.w3.org/1999/xlink" x="0" y="0" width="39.132" height="39.134" viewBox="0, 0, 39.132, 39.134">
  <g id="Layer_1">
    <g/>
    <path d="M34.539,7.457 C35.33,6.666 35.33,5.384 34.539,4.594 C33.748,3.803 32.466,3.803 31.675,4.594 L19.567,16.701 L7.457,4.594 C7.077,4.214 6.562,4 6.025,4 C5.488,4 4.972,4.214 4.593,4.594 C3.802,5.384 3.802,6.666 4.593,7.457 L16.703,19.563 L4.593,31.671 C3.802,32.462 3.802,33.743 4.593,34.534 C4.971,34.917 5.487,35.133 6.025,35.134 C6.563,35.133 7.079,34.917 7.457,34.534 L19.567,22.426 L31.675,34.532 C32.053,34.915 32.569,35.131 33.107,35.132 C33.645,35.131 34.161,34.915 34.539,34.532 C35.329,33.742 35.329,32.461 34.539,31.671 L22.431,19.563 z" fill="#A3A3A3"/>
  </g>
</svg>
